<?xml version="1.0" standalone="no"?>
<!DOCTYPE svg PUBLIC "-//W3C//DTD SVG 20010904//EN"
 "http://www.w3.org/TR/2001/REC-SVG-20010904/DTD/svg10.dtd">
<svg version="1.0" xmlns="http://www.w3.org/2000/svg"
 width="406.000000pt" height="318.000000pt" viewBox="0 0 406.000000 318.000000"
 preserveAspectRatio="xMidYMid meet">

<g transform="translate(0.000000,318.000000) scale(0.100000,-0.100000)"
fill="#000000" stroke="none">
<path d="M0 2851 c0 -255 3 -330 13 -334 22 -7 121 25 135 44 7 11 17 17 22
14 4 -3 23 12 40 32 19 22 28 39 21 41 -6 2 -11 7 -11 12 0 14 58 -19 64 -37
4 -9 2 -21 -4 -27 -18 -18 -12 -46 10 -46 13 0 20 7 20 19 0 32 11 50 26 44 8
-3 14 1 14 8 0 7 7 3 16 -9 16 -24 62 -54 49 -32 -5 9 -1 10 14 5 24 -7 29 10
6 19 -8 3 -15 10 -15 16 0 6 5 8 12 4 7 -4 8 -3 4 5 -6 9 -11 9 -22 0 -8 -7
-14 -7 -14 -1 0 5 -8 9 -17 8 -10 0 -18 6 -18 14 0 10 -11 15 -37 15 -20 0
-34 -3 -31 -7 2 -5 -1 -8 -6 -8 -6 0 -11 7 -11 15 0 8 5 15 10 15 15 0 7 44
-10 66 -12 14 -12 16 -1 9 11 -6 13 -3 9 13 -4 12 -2 25 3 28 5 3 7 10 4 15
-11 17 6 49 26 49 10 0 19 -5 19 -11 0 -6 7 -9 15 -6 26 11 25 -10 -1 -22 -20
-9 -30 -9 -40 0 -10 8 -14 8 -14 0 0 -6 5 -11 11 -11 5 0 7 -5 3 -12 -4 -6 -3
-8 4 -4 6 3 13 2 17 -4 4 -6 10 -8 14 -6 4 3 16 -13 25 -35 16 -37 19 -39 30
-22 7 10 16 26 19 37 6 14 4 17 -10 12 -16 -6 -16 -6 0 12 9 10 17 24 17 30 0
9 5 9 20 0 14 -9 22 -10 31 -1 8 8 1 20 -25 47 -31 31 -33 34 -11 24 14 -6 25
-16 25 -21 0 -6 8 -3 19 7 17 16 19 15 35 -6 9 -13 15 -18 12 -12 -3 7 4 10
19 8 14 -1 23 2 19 7 -3 5 -10 9 -15 9 -15 0 -36 23 -42 46 -4 16 -5 16 -6 2
-1 -19 -16 -24 -25 -9 -3 5 -15 7 -26 4 -12 -3 -20 0 -20 7 0 9 -3 10 -13 1
-8 -6 -17 -8 -21 -4 -4 4 -4 0 0 -10 4 -11 0 -19 -10 -23 -9 -3 -16 -12 -16
-20 0 -8 -6 -11 -16 -7 -13 5 -13 7 -2 14 11 8 5 13 -14 11 -3 -1 -9 5 -12 13
-3 8 -1 15 4 15 6 0 10 14 10 30 0 18 6 33 15 36 8 4 15 11 15 18 0 6 10 23
23 38 12 14 27 35 34 45 11 17 12 17 12 1 1 -10 6 -18 12 -18 9 0 9 -4 0 -14
-9 -10 -3 -13 29 -12 22 0 40 4 40 8 0 4 6 5 14 2 9 -3 12 -13 9 -22 -4 -13
-2 -13 9 2 10 12 20 16 29 11 8 -5 3 4 -10 18 -25 28 -32 32 -30 20 3 -21 -3
-22 -26 -7 -14 9 -25 23 -25 30 0 8 -4 14 -10 14 -6 0 -5 9 1 24 8 16 18 23
30 21 11 -2 19 0 19 6 0 5 -108 9 -270 9 l-270 0 0 -329z m480 248 c0 -5 -4
-9 -8 -9 -5 0 -9 7 -9 15 0 8 4 12 9 9 4 -3 8 -9 8 -15z"/>
<path d="M810 3165 c7 -9 15 -13 17 -11 7 7 -7 26 -19 26 -6 0 -6 -6 2 -15z"/>
<path d="M900 3164 c0 -8 -4 -13 -9 -9 -5 3 -17 -5 -26 -17 -12 -19 -17 -20
-24 -9 -7 11 -10 10 -13 -5 -2 -10 3 -27 11 -36 17 -20 23 -48 10 -48 -5 0 -9
-8 -9 -17 0 -10 -7 -27 -15 -37 -8 -10 -12 -22 -10 -27 3 -4 -6 -16 -20 -27
-13 -11 -22 -22 -19 -25 3 -2 -4 -22 -15 -43 -12 -21 -21 -44 -21 -51 0 -7 -7
-13 -16 -13 -10 0 -14 -6 -11 -14 3 -8 3 -17 -1 -21 -4 -4 -7 -12 -7 -18 -1
-7 -6 -11 -13 -9 -7 1 -12 -7 -12 -19 0 -15 -5 -19 -15 -15 -9 3 -15 0 -15
-10 0 -8 5 -12 10 -9 6 3 10 1 10 -4 0 -6 -4 -11 -10 -11 -5 0 -10 -9 -10 -20
0 -12 -7 -20 -17 -20 -15 0 -16 -2 -3 -10 10 -6 11 -10 3 -10 -7 0 -13 -9 -13
-20 0 -11 -6 -20 -12 -20 -7 0 1 -10 19 -21 19 -12 54 -22 85 -24 29 -2 64 -6
78 -10 14 -4 32 -7 40 -7 8 0 31 -4 50 -9 50 -12 87 -17 235 -29 142 -12 185
-6 185 29 0 10 6 21 14 24 8 3 20 16 26 28 7 12 8 19 2 15 -12 -7 -25 22 -16
36 4 6 10 5 15 -3 6 -10 9 -6 9 12 0 14 10 34 23 45 12 10 19 15 15 11 -3 -5
-2 -22 4 -38 10 -28 11 -29 25 -12 8 10 12 12 8 6 -8 -17 12 -53 29 -53 13 0
26 20 26 41 0 5 -8 9 -17 9 -22 1 -44 18 -61 49 -12 20 -12 23 0 19 8 -4 14 3
14 18 1 13 -2 24 -8 24 -5 0 -7 -4 -3 -9 3 -5 1 -12 -5 -16 -5 -3 -10 3 -10
14 0 10 5 21 12 23 6 2 13 14 15 26 1 12 21 39 43 61 22 21 40 44 40 49 0 6 9
16 20 22 11 6 20 17 20 25 0 8 7 18 15 23 9 4 19 21 24 38 4 16 9 27 12 24 10
-11 35 25 32 45 -3 14 5 27 25 42 17 12 37 36 45 53 l16 31 -405 -1 c-351 -1
-404 -3 -404 -16z m0 -50 c0 -8 -4 -12 -10 -9 -5 3 -10 10 -10 16 0 5 5 9 10
9 6 0 10 -7 10 -16z m557 -526 c-3 -8 -6 -5 -6 6 -1 11 2 17 5 13 3 -3 4 -12
1 -19z"/>
<path d="M2455 3168 c-21 -12 -65 -57 -65 -68 0 -3 -18 -17 -40 -30 -22 -14
-40 -28 -40 -32 0 -5 -7 -8 -15 -8 -9 0 -21 -11 -27 -25 -6 -13 -19 -27 -29
-30 -10 -4 -18 -9 -18 -13 4 -27 -3 -44 -16 -38 -8 3 -14 2 -13 -2 3 -17 -15
-62 -26 -62 -12 -1 -40 -57 -50 -102 -4 -16 -13 -28 -21 -28 -7 0 -17 -10 -21
-22 -4 -13 -13 -27 -20 -33 -8 -5 -15 -21 -17 -35 -3 -16 -10 -24 -20 -22 -10
2 -18 -8 -22 -28 -4 -16 -13 -30 -21 -30 -8 0 -13 -3 -13 -7 4 -26 -3 -53 -14
-53 -7 0 -20 -9 -29 -19 -9 -10 -24 -23 -33 -28 -12 -7 -17 -25 -18 -63 -2
-46 1 -55 23 -71 14 -10 37 -21 53 -24 63 -12 76 -16 110 -30 20 -8 50 -15 66
-15 17 0 48 -6 68 -14 60 -21 173 -57 195 -61 11 -2 44 -13 74 -25 62 -23 121
-25 147 -6 9 7 23 31 30 52 8 22 24 44 38 51 13 7 19 13 13 13 -16 0 -25 38
-12 47 7 3 8 1 4 -5 -4 -7 -5 -12 -1 -12 10 0 28 54 26 76 -1 12 5 24 13 27 9
4 16 11 16 17 0 6 16 28 36 48 33 34 57 66 123 165 13 20 28 37 33 37 4 0 14
15 21 33 8 17 33 52 56 77 24 25 50 56 59 70 9 14 22 32 29 40 28 32 83 111
83 118 0 4 8 14 18 23 9 8 36 37 60 64 58 66 85 78 159 77 34 -1 65 3 68 8 9
15 -994 13 -1020 -2z"/>
<path d="M760 3111 c1 -3 7 -17 15 -31 11 -20 14 -21 15 -7 0 10 4 16 9 12 6
-3 9 3 8 12 0 11 -10 19 -24 19 -13 1 -23 -1 -23 -5z"/>
<path d="M770 3040 c0 -5 5 -10 10 -10 6 0 10 5 10 10 0 6 -4 10 -10 10 -5 0
-10 -4 -10 -10z"/>
<path d="M551 2994 c0 -11 3 -14 6 -6 3 7 2 16 -1 19 -3 4 -6 -2 -5 -13z"/>
<path d="M526 2957 c3 -8 11 -14 19 -14 11 0 12 4 4 14 -6 7 -15 13 -20 13 -5
0 -6 -6 -3 -13z"/>
<path d="M3963 2765 c-24 -13 -62 -44 -87 -69 -24 -25 -49 -46 -55 -46 -6 0
-11 -4 -11 -8 0 -4 -16 -25 -35 -46 -19 -21 -37 -46 -40 -57 -4 -10 -13 -19
-21 -19 -8 0 -14 -3 -14 -8 0 -4 -25 -34 -57 -67 -31 -33 -67 -77 -81 -97 -13
-21 -28 -38 -32 -38 -4 0 -11 -12 -15 -27 -8 -35 -53 -83 -77 -83 -10 0 -23
-11 -28 -24 -9 -23 -43 -50 -52 -41 -2 2 -5 -5 -5 -17 -1 -12 -6 -24 -11 -27
-5 -3 -17 -33 -27 -65 -11 -33 -26 -67 -35 -76 -46 -46 -19 -99 61 -120 24 -7
64 -22 89 -35 25 -12 97 -48 160 -80 63 -32 122 -64 131 -71 17 -15 162 -87
195 -98 22 -7 84 37 84 60 0 7 6 17 14 21 8 4 21 25 30 47 14 34 16 105 16
572 0 294 -3 534 -7 535 -5 0 -17 2 -28 4 -11 2 -39 -7 -62 -20z"/>
<path d="M356 2694 c-5 -12 -2 -15 10 -10 8 3 18 6 20 6 3 0 2 5 -1 10 -9 15
-22 12 -29 -6z"/>
<path d="M530 2665 c0 -8 4 -15 10 -15 5 0 7 7 4 15 -4 8 -8 15 -10 15 -2 0
-4 -7 -4 -15z"/>
<path d="M245 2630 c-3 -5 -1 -10 4 -10 6 0 11 5 11 10 0 6 -2 10 -4 10 -3 0
-8 -4 -11 -10z"/>
<path d="M488 2462 c-10 -2 -18 -8 -18 -13 0 -6 5 -7 10 -4 6 3 10 -3 10 -14
0 -23 22 -28 38 -8 13 16 -16 45 -40 39z"/>
<path d="M145 2450 c-4 -6 -13 -9 -21 -6 -11 4 -12 2 -1 -14 6 -11 22 -20 35
-20 20 0 22 2 11 23 -16 30 -16 30 -24 17z"/>
<path d="M0 2434 c0 -8 5 -12 10 -9 6 3 10 1 10 -4 0 -6 15 -11 33 -11 l32 0
-33 20 c-39 24 -52 25 -52 4z"/>
<path d="M360 2440 c-13 -8 -13 -11 1 -26 19 -18 30 -8 20 18 -4 12 -10 15
-21 8z"/>
<path d="M910 2442 c0 -9 -7 -11 -20 -7 -25 8 -26 -8 -3 -35 34 -39 69 -11 39
32 -9 12 -16 17 -16 10z m2 -34 c-7 -7 -12 -8 -12 -2 0 14 12 26 19 19 2 -3
-1 -11 -7 -17z"/>
<path d="M984 2425 c0 -13 6 -20 13 -18 20 8 22 31 3 36 -13 3 -17 -1 -16 -18z"/>
<path d="M250 2425 c0 -8 5 -15 10 -15 6 0 10 7 10 15 0 8 -4 15 -10 15 -5 0
-10 -7 -10 -15z"/>
<path d="M640 2426 c0 -2 7 -6 15 -10 8 -3 15 -1 15 4 0 6 -7 10 -15 10 -8 0
-15 -2 -15 -4z"/>
<path d="M956 2413 c-6 -14 -5 -15 5 -6 7 7 10 15 7 18 -3 3 -9 -2 -12 -12z"/>
<path d="M763 2406 c5 -15 24 -18 24 -3 0 8 -6 14 -14 14 -7 0 -12 -5 -10 -11z"/>
<path d="M1023 2383 c2 -36 17 -46 39 -26 17 15 17 17 -4 34 -29 26 -36 24
-35 -8z"/>
<path d="M1165 2371 c-8 -26 4 -44 22 -33 8 5 8 13 -2 31 l-13 24 -7 -22z"/>
<path d="M1280 2368 c0 -4 5 -19 12 -35 6 -15 11 -31 10 -35 -1 -4 7 -6 18 -5
23 1 33 34 13 41 -8 3 -11 10 -8 16 3 5 1 10 -4 10 -6 0 -11 -6 -11 -12 0 -8
-7 -5 -15 6 -8 11 -15 17 -15 14z"/>
<path d="M1564 2328 c3 -13 6 -31 6 -41 0 -10 4 -16 9 -13 5 4 12 0 14 -6 10
-24 7 31 -3 56 -12 32 -35 35 -26 4z"/>
<path d="M1442 2304 c10 -10 20 -16 22 -13 3 3 -5 11 -17 18 -21 13 -21 12 -5
-5z"/>
<path d="M2740 2317 c0 -1 4 -17 10 -36 5 -19 7 -31 3 -28 -9 10 -34 -44 -35
-75 -1 -31 18 -59 35 -52 7 2 18 14 25 25 11 17 11 20 0 14 -7 -5 -3 2 10 14
18 18 20 26 11 42 -6 11 -8 27 -5 34 3 8 1 17 -4 20 -6 4 -10 0 -10 -7 0 -10
-2 -10 -9 1 -5 8 -7 20 -5 26 3 7 -2 15 -10 18 -9 4 -16 5 -16 4z"/>
<path d="M1731 2272 c-7 -14 -7 -24 3 -37 18 -25 46 -12 46 21 0 15 -3 24 -7
21 -3 -4 -12 -2 -19 4 -9 7 -15 5 -23 -9z"/>
<path d="M2840 2259 c0 -11 5 -17 10 -14 6 4 8 10 5 15 -3 4 1 11 7 13 8 3 6
6 -4 6 -12 1 -18 -6 -18 -20z"/>
<path d="M2998 2273 c-24 -6 -23 -22 0 -20 10 0 19 7 19 14 0 7 -1 12 -1 12
-1 -1 -9 -3 -18 -6z"/>
<path d="M2715 2240 c-3 -5 -1 -10 4 -10 6 0 11 5 11 10 0 6 -2 10 -4 10 -3 0
-8 -4 -11 -10z"/>
<path d="M2885 2240 c-3 -6 1 -17 10 -26 9 -9 14 -23 11 -30 -3 -7 -1 -16 4
-19 6 -4 10 -11 10 -16 0 -6 -4 -7 -10 -4 -14 8 -13 -11 2 -34 11 -18 12 -18
31 5 10 14 24 21 30 17 8 -5 8 -2 0 9 -13 15 -8 28 9 28 5 0 6 -6 2 -12 -4 -7
2 -5 13 5 21 18 21 19 2 38 -10 10 -27 19 -36 19 -16 0 -16 2 -3 11 12 8 9 10
-13 6 -15 -2 -30 0 -33 4 -7 12 -21 11 -29 -1z"/>
<path d="M1865 2220 c-8 -13 14 -52 26 -45 15 10 11 55 -5 55 -8 0 -18 -4 -21
-10z"/>
<path d="M2006 2202 c-3 -3 -6 -17 -6 -30 0 -14 3 -22 7 -19 3 4 11 -1 18 -10
16 -21 36 -8 31 20 -3 12 -5 25 -5 28 -1 9 -39 18 -45 11z"/>
<path d="M475 2180 c-7 -11 22 -26 32 -16 4 3 1 6 -6 6 -7 0 -9 5 -6 10 3 6 2
10 -4 10 -5 0 -13 -5 -16 -10z"/>
<path d="M0 2158 c0 -22 16 -24 24 -2 8 21 8 21 -9 21 -8 0 -15 -9 -15 -19z"/>
<path d="M3120 2160 c0 -5 9 -10 21 -10 11 0 17 5 14 10 -3 6 -13 10 -21 10
-8 0 -14 -4 -14 -10z"/>
<path d="M2185 2152 c-15 -11 -19 -45 -4 -40 7 2 13 14 14 26 1 12 1 22 1 22
-1 0 -5 -4 -11 -8z"/>
<path d="M3040 2140 c0 -5 7 -7 17 -3 13 5 15 2 11 -15 -4 -15 -2 -19 8 -15
10 4 11 10 3 24 -10 20 -39 26 -39 9z"/>
<path d="M61 2133 c4 -22 -3 -32 -16 -27 -8 4 -15 1 -15 -5 0 -6 -7 -8 -15 -5
-13 5 -15 -121 -15 -1045 l0 -1050 859 -1 c850 0 859 1 854 20 -3 11 -9 17
-14 14 -9 -5 -14 11 -9 31 1 6 4 24 5 40 2 17 4 32 5 35 1 3 1 13 0 24 -1 11
3 15 9 12 6 -4 11 0 11 8 0 9 9 25 20 36 23 23 25 36 8 44 -7 3 -2 3 11 0 21
-5 23 -3 18 15 -5 19 3 26 26 22 4 -1 10 12 13 28 4 18 12 28 22 27 9 0 17 6
17 14 1 8 6 14 13 12 7 -1 12 3 12 9 0 5 4 7 10 4 5 -3 7 0 4 8 -3 8 -1 18 5
22 6 3 11 2 11 -3 0 -15 37 -2 52 17 12 14 11 15 -5 2 -15 -12 -17 -12 -11 3
7 19 34 22 34 4 0 -9 4 -8 10 2 8 12 11 13 19 1 6 -9 11 -10 15 -2 9 14 46 14
46 0 0 -7 9 -9 21 -6 14 4 30 -4 51 -24 17 -16 34 -26 38 -24 4 3 13 -2 20
-10 7 -8 16 -12 21 -9 5 3 20 -6 34 -20 14 -15 30 -26 36 -26 6 0 7 -4 4 -10
-3 -5 0 -10 8 -10 8 0 22 -9 33 -21 10 -11 37 -29 59 -39 22 -11 33 -20 25
-20 -9 0 -4 -6 10 -13 13 -7 30 -24 37 -37 7 -14 13 -21 13 -16 0 5 6 3 13 -3
8 -6 18 -7 22 -3 5 4 5 2 2 -4 -4 -7 2 -14 13 -17 12 -3 20 -14 20 -26 0 -12
6 -21 15 -21 14 0 19 -12 16 -32 -2 -14 11 -9 26 9 8 10 12 12 8 5 -4 -7 5
-26 18 -42 l25 -29 701 -1 701 0 0 336 0 336 -31 39 c-17 22 -35 37 -40 33 -5
-3 -12 2 -15 11 -4 9 -13 14 -20 11 -8 -3 -14 -1 -14 5 0 6 -4 7 -10 4 -5 -3
-10 1 -10 9 0 8 -9 20 -20 26 -12 6 -18 16 -14 23 5 9 3 8 -7 0 -18 -18 -30
-16 -22 4 4 10 3 14 -5 9 -15 -9 -98 31 -129 62 -13 13 -22 30 -19 38 4 11 0
10 -19 -2 -14 -9 -25 -12 -25 -6 0 6 -8 9 -19 7 -13 -2 -24 7 -37 34 -14 30
-23 37 -40 33 -19 -3 -22 -1 -17 17 4 17 2 20 -11 15 -9 -4 -18 0 -22 9 -3 9
-12 13 -20 10 -13 -5 -20 14 -15 40 1 5 -3 6 -9 2 -6 -3 -7 -11 -4 -17 5 -7 2
-8 -5 -4 -7 5 -10 14 -7 22 3 7 0 16 -6 20 -7 4 -8 3 -4 -4 10 -16 -5 -14 -28
3 -10 7 -15 18 -11 24 3 6 2 11 -3 11 -6 0 -13 -7 -16 -16 -8 -22 -8 -24 5
-21 6 1 14 -5 16 -13 3 -9 1 -11 -4 -5 -4 6 -15 11 -23 10 -20 0 -57 37 -52
52 2 7 8 10 13 7 16 -9 9 30 -9 54 -17 22 -18 22 -19 2 -1 -11 2 -18 8 -15 11
8 11 3 -1 -29 -12 -32 -19 -32 -56 -1 -28 24 -43 29 -71 26 -7 -1 -13 5 -13
13 0 8 -11 26 -25 40 -15 15 -25 20 -25 12 0 -20 -27 -28 -34 -10 -3 8 -17 14
-31 14 -15 0 -24 4 -20 10 3 6 -1 10 -10 10 -9 0 -15 6 -14 13 3 23 -3 52 -8
40 -3 -10 -9 -9 -20 3 -12 12 -18 12 -23 3 -5 -8 -10 -5 -15 10 -5 18 -9 19
-27 10 -18 -9 -20 -9 -15 4 4 12 2 14 -10 10 -8 -3 -19 0 -24 8 -4 8 -12 14
-16 14 -20 2 -53 17 -53 25 0 9 -32 6 -50 -5 -6 -3 -10 1 -10 9 0 9 -7 13 -20
11 -11 -2 -20 1 -20 6 0 6 -5 7 -11 3 -6 -3 -15 0 -20 7 -8 12 -10 12 -18 0
-7 -11 -10 -9 -16 8 -3 11 -11 21 -16 21 -6 0 -7 5 -4 10 11 18 -25 23 -45 5
-17 -15 -20 -15 -44 0 -14 9 -30 14 -36 10 -5 -3 -13 0 -16 9 -3 8 -12 12 -20
9 -10 -4 -12 0 -8 12 5 12 2 16 -12 13 -15 -2 -18 2 -16 21 2 15 0 21 -7 17
-6 -4 -11 -2 -11 3 0 6 -7 11 -16 11 -8 0 -12 5 -9 10 3 6 1 10 -4 10 -6 0
-11 -6 -11 -12 -1 -8 -6 -5 -14 5 -12 15 -18 17 -36 7 -20 -11 -21 -10 -15 9
4 13 2 21 -5 21 -6 0 -9 -3 -7 -7 3 -5 -1 -21 -8 -38 -13 -29 -14 -29 -20 -7
-4 12 -12 22 -17 22 -5 0 -7 -4 -3 -9 3 -5 0 -13 -6 -17 -8 -4 -9 -3 -5 4 4 7
3 12 -3 12 -7 0 -7 8 -1 24 5 13 6 27 3 30 -4 3 -1 6 5 6 6 0 9 7 6 15 -9 23
-31 -5 -26 -32 4 -22 -12 -53 -27 -53 -4 0 -17 9 -29 20 -17 16 -26 18 -41 10
-11 -5 -28 -7 -38 -3 -23 8 -53 39 -53 54 0 7 -8 4 -21 -7 -11 -10 -20 -14
-19 -9 5 22 -1 36 -12 29 -6 -4 -8 -3 -5 3 4 6 0 19 -8 29 -17 23 -19 38 -3
28 6 -4 8 -3 5 3 -3 5 -20 8 -36 5 -18 -2 -28 -9 -24 -15 4 -6 1 -7 -6 -3 -7
5 -10 14 -7 22 3 8 1 14 -4 14 -6 0 -10 -7 -10 -17 0 -9 -3 -13 -7 -10 -3 4
-15 0 -24 -9 -17 -16 -19 -16 -25 0 -3 9 -10 16 -16 16 -5 0 -6 -5 -3 -10 3
-6 1 -10 -5 -10 -6 0 -8 -4 -5 -10 15 -24 -4 -7 -21 18 -17 26 -17 27 1 12 17
-14 18 -13 12 3 -4 10 -7 23 -7 28 0 4 -7 6 -15 3 -8 -4 -15 -17 -15 -29 0
-13 -4 -27 -10 -30 -6 -4 -7 1 -3 11 5 14 2 16 -15 12 -15 -4 -22 -2 -22 8 0
8 -6 11 -16 7 -10 -4 -17 1 -20 15 -4 14 -11 18 -26 14 -13 -3 -19 -1 -15 5 3
5 9 24 12 43 5 26 3 31 -9 27 -9 -4 -20 1 -25 11 -9 15 -11 15 -29 -6 -17 -19
-21 -20 -26 -7 -9 24 -25 9 -21 -20 1 -14 -2 -28 -7 -31 -5 -4 -9 4 -7 17 3
32 -10 59 -27 59 -8 0 -14 -4 -14 -8 0 -5 -7 -17 -16 -28 -13 -16 -15 -16 -10
-2 3 10 1 20 -3 23 -5 3 -8 13 -6 23 1 9 0 11 -2 4 -3 -7 -9 -10 -14 -7 -5 4
-10 0 -10 -7 -1 -7 -4 0 -8 16 -6 28 -7 29 -23 12 -10 -9 -22 -15 -27 -11 -5
3 -12 1 -16 -5 -4 -6 -10 -8 -15 -5 -5 3 -11 1 -15 -4 -3 -6 -13 -7 -21 -4 -9
3 -20 0 -25 -8 -7 -11 -9 -10 -10 6 -3 35 -4 40 -12 53 -5 6 -15 12 -23 12 -8
0 -12 -4 -9 -10 3 -5 2 -10 -4 -10 -5 0 -14 -12 -19 -27 -10 -26 -10 -25 -11
17 -1 30 -4 40 -10 31 -5 -8 -18 -12 -29 -9 -13 4 -19 1 -16 -6 5 -16 -13 -42
-23 -32 -4 5 -2 11 5 13 6 3 10 9 6 14 -3 5 -12 5 -23 0 -10 -6 -23 -6 -31 -1
-8 5 -18 6 -24 3 -5 -3 -6 -1 -2 5 4 7 2 12 -4 12 -6 0 -8 5 -4 12 4 7 3 8 -4
4 -7 -4 -12 -15 -12 -24 0 -13 -3 -12 -16 6 -8 12 -20 20 -25 17 -5 -4 -9 -2
-9 4 0 6 -6 8 -14 5 -8 -3 -17 0 -21 6 -5 8 -13 6 -26 -6 -11 -9 -19 -12 -19
-6 0 6 -6 9 -14 6 -8 -3 -17 -1 -20 5 -4 6 -13 8 -20 5 -7 -3 -16 3 -20 12 -6
16 -8 16 -22 -2 -9 -10 -13 -13 -9 -7 3 7 2 20 -3 29 -8 15 -10 14 -16 -2 -5
-14 -9 -15 -15 -6 -4 8 -21 15 -37 17 -15 1 -30 8 -32 14 -5 15 -52 14 -52 -1
0 -18 -17 3 -22 27 -3 18 -6 16 -21 -10 -16 -30 -16 -30 -17 -5 0 20 -2 22
-10 10 -5 -8 -7 -23 -4 -34 4 -12 2 -16 -5 -12 -6 4 -11 15 -11 24 -1 16 -2
16 -14 -1 -9 -11 -20 -15 -31 -10 -14 5 -16 3 -11 -8 4 -8 1 -5 -8 5 -14 18
-16 18 -22 2 -6 -15 -8 -15 -23 -2 -22 20 -71 38 -71 26 0 -5 -7 -7 -15 -4 -9
4 -15 0 -15 -7 0 -12 -2 -11 -9 0 -11 17 -61 24 -61 9 0 -6 -3 -8 -7 -5 -3 4
-12 2 -20 -4 -10 -9 -13 -6 -13 12 -1 23 -1 23 -15 5 -15 -19 -15 -19 -16 5
-1 18 -3 19 -6 6 -3 -11 -11 -16 -19 -13 -8 3 -14 1 -14 -4 0 -20 -20 -9 -25
13 -6 20 -47 58 -44 40z m1435 -259 c-3 -9 -6 -21 -7 -27 0 -7 -4 -3 -8 8 -9
22 -5 35 11 35 5 0 7 -7 4 -16z m64 -24 c0 -11 -2 -20 -4 -20 -2 0 -6 9 -9 20
-3 11 -1 20 4 20 5 0 9 -9 9 -20z m-802 -1133 c5 -24 -15 -21 -21 4 -3 13 -1
19 6 16 7 -2 13 -11 15 -20z m2496 -243 c20 -8 21 -34 1 -34 -8 0 -15 2 -15 4
0 2 -3 11 -6 20 -7 18 -4 19 20 10z"/>
<path d="M370 2116 c0 -8 5 -18 10 -21 6 -3 10 1 10 9 0 8 -4 18 -10 21 -5 3
-10 -1 -10 -9z"/>
<path d="M2326 2093 c-6 -14 -5 -15 5 -6 7 7 10 15 7 18 -3 3 -9 -2 -12 -12z"/>
<path d="M2476 2045 c4 -9 11 -14 16 -13 15 5 11 23 -6 26 -11 2 -14 -2 -10
-13z"/>
<path d="M2615 1991 c-3 -5 -1 -12 5 -16 5 -3 10 1 10 9 0 18 -6 21 -15 7z"/>
<path d="M2780 1972 c-25 -8 -29 -23 -11 -42 11 -12 21 -14 34 -8 9 5 17 12
17 16 0 17 -26 39 -40 34z"/>
<path d="M1845 1919 c-4 -6 -5 -12 -2 -15 2 -3 7 2 10 11 7 17 1 20 -8 4z"/>
<path d="M1921 1804 c0 -11 3 -14 6 -6 3 7 2 16 -1 19 -3 4 -6 -2 -5 -13z"/>
<path d="M2077 1773 c-4 -3 -7 -13 -7 -21 0 -9 3 -13 6 -9 4 3 13 0 21 -8 8
-8 24 -15 36 -15 12 0 18 -4 12 -8 -14 -10 -18 -42 -5 -42 5 0 10 8 11 18 0 9
2 26 3 38 1 11 -3 21 -10 21 -7 0 -10 -5 -7 -10 3 -6 1 -7 -5 -3 -7 4 -12 14
-12 23 0 9 -3 13 -7 10 -3 -4 -11 -2 -18 3 -7 5 -15 7 -18 3z"/>
<path d="M3240 1740 c0 -5 5 -10 10 -10 6 0 10 5 10 10 0 6 -4 10 -10 10 -5 0
-10 -4 -10 -10z"/>
<path d="M3387 1660 c3 -11 9 -17 14 -14 14 8 10 34 -5 34 -9 0 -12 -7 -9 -20z"/>
<path d="M3554 1596 c1 -8 5 -18 8 -22 4 -3 5 1 4 10 -1 8 -5 18 -8 22 -4 3
-5 -1 -4 -10z"/>
<path d="M3356 1163 c-4 -9 -1 -21 5 -27 9 -8 10 -8 5 2 -4 7 -2 19 4 27 7 9
8 15 2 15 -5 0 -13 -8 -16 -17z"/>
</g>
</svg>
